<svg version="1.1" xmlns="http://www.w3.org/2000/svg" xmlns:xlink="http://www.w3.org/1999/xlink" width="82.95896" height="83.43675" viewBox="0,0,82.95896,83.43675"><g transform="translate(-139.715,-319.715)"><g stroke-miterlimit="10"><path d="M149.51396,402.15175c-3.54014,0 -6.41,-2.86985 -6.41,-6.41v-65.75c0,-3.54014 2.86986,-6.41 6.41,-6.41h65.75c3.54014,0 6.41,2.86986 6.41,6.41v65.75c0,3.54014 -2.86986,6.41 -6.41,6.41z" fill-opacity="0.81569" fill="#000000" stroke-opacity="0.81569" stroke="#000000" stroke-width="2"/><path d="M147.125,399.285c-3.54015,0 -6.41,-2.86985 -6.41,-6.41v-65.75c0,-3.54015 2.86985,-6.41 6.41,-6.41h65.75c3.54015,0 6.41,2.86985 6.41,6.41v65.75c0,3.54015 -2.86985,6.41 -6.41,6.41z" fill="#67c2ef" stroke="#1d1d1b" stroke-width="2"/><g fill="#ffffff" stroke="#1d1d1b" stroke-width="3"><path d="M154.49,360c0,-14.08878 11.42122,-25.51 25.51,-25.51c14.08878,0 25.51,11.42122 25.51,25.51c0,14.08878 -11.42122,25.51 -25.51,25.51c-14.08878,0 -25.51,-11.42122 -25.51,-25.51z"/><path d="M165.53,360c0,-7.99156 6.47844,-14.47 14.47,-14.47c7.99156,0 14.47,6.47844 14.47,14.47c0,7.99156 -6.47844,14.47 -14.47,14.47c-7.99156,0 -14.47,-6.47844 -14.47,-14.47z"/></g></g></g></svg>