<svg id="_Слой_2" data-name="Слой 2" xmlns="http://www.w3.org/2000/svg" viewBox="0 0 49.6 48.76">
  <defs>
    <style>
      .cls-1 {
        fill: #e72b76;
      }

      .cls-2 {
        stroke-width: 2.17px;
      }

      .cls-2, .cls-3, .cls-4 {
        stroke: #342f61;
      }

      .cls-2, .cls-3, .cls-4, .cls-5 {
        fill: none;
      }

      .cls-6 {
        fill: #342f61;
      }

      .cls-7 {
        fill: #86d1f5;
      }

      .cls-3, .cls-5 {
        stroke-width: 2.97px;
      }

      .cls-8 {
        font-family: Arial-BoldMT, Arial;
        font-size: 12px;
        font-weight: 700;
      }

      .cls-8, .cls-9 {
        fill: #fff;
      }

      .cls-4 {
        stroke-miterlimit: 10;
        stroke-width: 1.08px;
      }

      .cls-5 {
        stroke: #e72b76;
      }
    </style>
  </defs>
  <g id="_Слой_1-2" data-name="Слой 1">
    <g>
      <rect class="cls-7" width="49.6" height="48.66" rx="2.62" ry="2.62"></rect>
      <g>
        <g>
          <line class="cls-3" x1="11.56" y1="24.33" y2="24.33"></line>
          <line class="cls-5" x1="18.35" y1="24.33" x2="18.35"></line>
          <polygon class="cls-1" points="40.67 48.67 25.42 33.55 27.51 31.44 44.97 48.76 40.67 48.67"></polygon>
          <line class="cls-3" x1="18.35" y1="48.66" x2="18.35" y2="34.95"></line>
          <polygon class="cls-6" points="3.75 24.33 8.23 20.13 8.02 14 14.16 14.2 18.35 9.72 22.54 14.2 28.68 14 28.48 20.13 32.96 24.33 28.48 28.52 28.68 34.65 22.54 34.45 18.35 38.93 14.16 34.45 8.02 34.65 8.23 28.52 3.75 24.33"></polygon>
          <polygon class="cls-4" points="4.49 24.33 8.74 20.35 8.55 14.53 14.37 14.72 18.35 10.47 22.33 14.72 28.15 14.53 27.96 20.35 32.21 24.33 27.96 28.31 28.15 34.13 22.33 33.93 18.35 38.19 14.37 33.93 8.55 34.13 8.74 28.31 4.49 24.33"></polygon>
          <path class="cls-9" d="M7.73,24.33c0-5.87,4.76-10.62,10.62-10.62s10.62,4.76,10.62,10.62-4.76,10.62-10.62,10.62-10.62-4.76-10.62-10.62"></path>
          <circle class="cls-4" cx="18.35" cy="24.33" r="10.62" transform="translate(-7.22 40.91) rotate(-85.93)"></circle>
          <circle class="cls-2" cx="18.35" cy="24.33" r="10.13"></circle>
          <path class="cls-6" d="M37.41,19.14c-4.78,0-8.67-3.89-8.67-8.67s3.89-8.67,8.67-8.67,8.67,3.89,8.67,8.67-3.89,8.67-8.67,8.67"></path>
        </g>
        <text class="cls-8" transform="translate(30.74 14.63)"><tspan x="0" y="0">x5</tspan></text>
      </g>
    </g>
  </g>
</svg>