<svg id="_Слой_2" data-name="Слой 2" xmlns="http://www.w3.org/2000/svg" viewBox="0 0 48.69 49">
  <defs>
    <style>
      .cls-1, .cls-2 {
        fill: none;
      }

      .cls-2 {
        stroke: #1f1a49;
        stroke-miterlimit: 10;
        stroke-width: .68px;
      }

      .cls-3 {
        fill: #1f1a49;
      }

      .cls-4 {
        fill: #fff;
      }

      .cls-5 {
        fill: #db003c;
      }

      .cls-6 {
        fill: #f5f1a3;
      }

      .cls-7 {
        fill: #ed7f0e;
      }

      .cls-8 {
        fill: #6e227a;
      }
    </style>
  </defs>
  <g id="_Слой_1-2" data-name="Слой 1">
    <g>
      <path class="cls-7" d="M3.56,0h41.57c1.97,0,3.56,1.61,3.56,3.59v41.82c0,1.98-1.6,3.59-3.56,3.59H3.56c-1.97,0-3.56-1.61-3.56-3.59V3.59C0,1.61,1.6,0,3.56,0Z"></path>
      <rect class="cls-1" x="11.07" y="11.18" width="26.78" height="26.95"></rect>
      <path class="cls-4" d="M16.61,12.58h15.69c2.29,0,4.15,1.87,4.15,4.17v15.79c0,2.3-1.86,4.18-4.15,4.18h-15.69c-2.29,0-4.15-1.87-4.15-4.18v-15.79c0-2.3,1.86-4.17,4.15-4.17h0Z"></path>
      <path class="cls-3" d="M32.3,37.63h-15.69c-2.78,0-5.05-2.28-5.05-5.08v-15.79c0-2.8,2.26-5.08,5.05-5.08h15.7c2.78,0,5.05,2.28,5.05,5.08v15.79c0,2.8-2.27,5.08-5.05,5.08ZM16.6,13.49c-1.79,0-3.25,1.47-3.25,3.27v15.79c0,1.8,1.46,3.27,3.25,3.27h15.69c1.79,0,3.25-1.47,3.25-3.27v-15.79c0-1.8-1.46-3.27-3.25-3.27h-15.7Z"></path>
      <path class="cls-5" d="M17.99,33.15h-1.78v-2.31c0-2.17.84-4.21,2.36-5.74l5.53-5.56c.72-.73,1.13-1.73,1.13-2.75v-.62h1.77s0,.61,0,.61c0,1.5-.59,2.97-1.65,4.03l-5.53,5.56c-1.19,1.19-1.84,2.78-1.84,4.47v2.31h0Z"></path>
      <path class="cls-5" d="M23.68,33.15h-1.78v-2.32c0-2.17.84-4.21,2.36-5.74l5.53-5.56c.72-.73,1.13-1.73,1.13-2.75v-.62h1.77s0,.61,0,.61c0,1.5-.59,2.97-1.65,4.03l-5.53,5.56c-1.19,1.19-1.84,2.78-1.84,4.47v2.32h0Z"></path>
      <rect class="cls-3" x="16.21" y="16.16" width="1.78" height="16.99"></rect>
      <rect class="cls-3" x="21.9" y="16.16" width="1.78" height="16.99"></rect>
      <path class="cls-8" d="M32.31,32.82h-5.91c-.21,0-.38-.17-.38-.38v-3.58c0-.21.17-.38.38-.38h5.91c.21,0,.38.17.38.38v3.58c0,.21-.17.38-.38.38"></path>
      <path class="cls-3" d="M32.31,33.16h-5.91c-.4,0-.72-.32-.72-.72v-3.58c0-.4.32-.72.72-.72h5.91c.4,0,.72.32.72.72v3.58c0,.4-.32.72-.72.72ZM26.39,28.81s-.04.02-.04.04v3.58s.02.04.04.04h5.91s.04-.02.04-.04v-3.58s-.02-.04-.04-.04h-5.91Z"></path>
      <line class="cls-2" x1="31.17" y1="28.29" x2="31.17" y2="25.62"></line>
      <polyline class="cls-2" points="29.85 26.99 31.17 28.33 32.5 26.99"></polyline>
      <path class="cls-6" d="M28.63,27.13c0-1.41,1.13-2.55,2.53-2.55s2.53,1.14,2.53,2.55-1.13,2.55-2.53,2.55-2.53-1.14-2.53-2.55"></path>
      <path class="cls-3" d="M31.16,30.02c-.37,0-.74-.07-1.09-.22-1.46-.61-2.16-2.3-1.55-3.77.29-.71.85-1.27,1.55-1.56s1.49-.3,2.2,0c.71.3,1.26.85,1.55,1.56s.29,1.5,0,2.21c-.46,1.11-1.53,1.78-2.66,1.78ZM31.16,24.92c-.28,0-.57.06-.84.17-.54.23-.96.65-1.19,1.2-.46,1.13.07,2.42,1.19,2.89,1.12.47,2.41-.07,2.87-1.2.22-.55.22-1.15,0-1.69-.22-.55-.65-.97-1.19-1.2-.27-.11-.56-.17-.84-.17Z"></path>
      <polygon class="cls-3" points="32.64 26.79 31.5 26.79 31.5 25.65 30.82 25.65 30.82 26.79 29.69 26.79 29.69 27.47 30.82 27.47 30.82 28.61 31.5 28.61 31.5 27.47 32.64 27.47 32.64 26.79"></polygon>
    </g>
  </g>
</svg>